<?xml version="1.0" standalone="no"?>
<!DOCTYPE svg PUBLIC "-//W3C//DTD SVG 20010904//EN"
 "http://www.w3.org/TR/2001/REC-SVG-20010904/DTD/svg10.dtd">
<svg version="1.0" xmlns="http://www.w3.org/2000/svg"
 width="28.000000pt" height="28.000000pt" viewBox="0 0 400.000000 330.000000"
 preserveAspectRatio="xMidYMid meet">

<g transform="translate(0.000000,330.000000) scale(0.100000,-0.100000)"
fill="#2a7ae4" stroke="none">
<path d="M903 2986 c-60 -19 -107 -51 -152 -103 -67 -75 -77 -119 -84 -348 -3
-110 -11 -235 -17 -279 -41 -287 -149 -471 -301 -513 l-59 -16 0 -81 0 -81 58
-17 c108 -32 185 -114 238 -254 54 -143 73 -270 83 -553 7 -183 10 -211 30
-252 35 -74 86 -125 159 -161 l67 -33 1075 0 1075 0 47 22 c66 30 143 105 175
171 26 54 27 63 34 286 10 305 35 439 110 588 53 104 133 172 227 193 l32 7 0
83 0 84 -42 11 c-156 41 -251 186 -303 460 -11 53 -19 172 -23 315 -7 227 -8
231 -36 289 -35 72 -88 126 -158 163 l-53 28 -1070 2 c-861 2 -1078 -1 -1112
-11z m1288 -626 c69 -13 165 -58 212 -99 20 -18 51 -63 69 -99 30 -60 33 -75
33 -157 0 -71 -5 -100 -22 -137 -30 -66 -96 -133 -160 -165 l-55 -26 53 -14
c156 -40 259 -178 259 -347 0 -189 -102 -326 -288 -388 -63 -21 -86 -22 -434
-26 l-368 -3 0 735 0 736 324 0 c178 0 347 -5 377 -10z"/>
<path d="M1730 1959 l0 -211 183 4 c163 3 187 6 232 26 92 42 125 94 125 194
0 88 -28 134 -99 171 -54 27 -57 27 -248 27 l-193 0 0 -211z"/>
<path d="M1730 1330 l0 -240 158 0 c198 0 282 12 347 49 116 66 143 245 50
343 -63 66 -160 87 -407 88 l-148 0 0 -240z"/>
</g>
</svg>
