<?xml version="1.0" encoding="UTF-8"?>
<svg version="1.1" xmlns="http://www.w3.org/2000/svg" width="690" height="362">
<path d="M0 0 C35.619375 -0.20625 71.23875 -0.4125 107.9375 -0.625 C124.80798462 -0.76156006 124.80798462 -0.76156006 142.01928711 -0.90087891 C155.75305176 -0.94604492 155.75305176 -0.94604492 162.18238831 -0.95443726 C166.67332861 -0.9637548 171.16308699 -1.00122742 175.65370178 -1.05575562 C181.38472558 -1.12442237 187.11403444 -1.14490012 192.84543145 -1.13072276 C194.946931 -1.13368648 197.04849133 -1.15347819 199.1496371 -1.19215131 C214.87548799 -1.46811513 214.87548799 -1.46811513 220.13809395 2.16853714 C222.3940526 4.66743236 224.16210839 7.1889878 226 10 C227.37397758 11.31687031 228.78520928 12.59744859 230.25 13.8125 C235.23398042 17.95516749 239.57657032 22.59661673 243.875 27.4375 C247.25044864 31.17962684 250.65177266 34.56539635 254.5546875 37.7421875 C256.66781845 39.58118254 258.25293635 41.81617044 260 44 C261.14965823 45.01950824 262.3179177 46.01827063 263.5 47 C265.60833391 48.75174467 267.21846211 50.27483943 268.9375 52.4375 C271.39562373 55.49153252 274.21972761 57.73870966 277.29296875 60.15625 C280.39560178 63.50737766 280.12491013 67.83664718 280.12304783 72.22236347 C280.12503888 73.25992041 280.12702993 74.29747735 280.12908131 75.3664754 C280.12616847 76.49974094 280.12325563 77.63300648 280.12025452 78.8006134 C280.12153615 80.61399351 280.12153615 80.61399351 280.12284368 82.46400756 C280.124206 85.81619688 280.12108072 89.16832782 280.11606562 92.52051008 C280.1117473 96.13667955 280.11320853 99.75284723 280.1139679 103.36901855 C280.11449225 109.63316589 280.11135465 115.89730281 280.10573006 122.16144753 C280.09760314 131.21834964 280.09499861 140.27524672 280.09374207 149.33215209 C280.09155342 164.02636922 280.08489842 178.7205808 280.07543945 193.41479492 C280.06626049 207.68888319 280.05919349 221.96296993 280.05493164 236.23706055 C280.05466364 237.12588395 280.05439565 238.01470736 280.05411953 238.9304648 C280.05204011 245.88164438 280.05008318 252.83282399 280.04816496 259.78400362 C280.03873123 293.85600751 280.01861293 327.9279975 280 362 C187.6 362 95.2 362 0 362 C0 242.54 0 123.08 0 0 Z M14 12 C13.17905048 15.58895076 12.87477893 18.89796684 12.87415886 22.57648468 C12.87155111 23.69310942 12.86894336 24.80973416 12.86625659 25.96019602 C12.86848732 27.18186771 12.87071804 28.4035394 12.87301636 29.66223145 C12.87145637 30.96406797 12.86989638 32.26590449 12.86828911 33.60719061 C12.8641118 37.21930824 12.86617934 40.83139948 12.86927533 44.44351721 C12.87153587 48.34010339 12.86804642 52.23668499 12.86529541 56.13327026 C12.86084476 63.76841198 12.86181135 71.40354387 12.86470805 79.03868598 C12.86696616 85.24793401 12.86727283 91.45717929 12.86618423 97.66642761 C12.866031 98.55011236 12.86587777 99.43379711 12.86571989 100.34426019 C12.86540016 102.13953801 12.86507595 103.93481583 12.8647473 105.73009366 C12.86189423 122.57437267 12.86517613 139.41864625 12.87054767 156.26292437 C12.87500935 170.70035075 12.87424469 185.13776908 12.86962891 199.57519531 C12.8642694 216.34668342 12.86217543 233.11816675 12.86524117 249.88965559 C12.86555971 251.68078581 12.86587408 253.47191604 12.86618423 255.26304626 C12.86633851 256.14425735 12.86649279 257.02546844 12.86665174 257.9333829 C12.86751322 264.12746986 12.86606181 270.32155377 12.86370468 276.51564026 C12.86089093 284.07589111 12.86167782 291.63613159 12.86698543 299.19638127 C12.86960219 303.0500894 12.87066214 306.90378027 12.86733627 310.75748825 C12.86377669 314.94564013 12.86804535 319.13374897 12.87301636 323.32189941 C12.87078564 324.52572533 12.86855491 325.72955125 12.86625659 326.96985674 C12.86886434 328.10734346 12.87147209 329.24483018 12.87415886 330.41678619 C12.87440239 331.86344217 12.87440239 331.86344217 12.87465084 333.33932352 C13.06513789 338.90227621 13.57309095 344.45018229 14 350 C97.16 350 180.32 350 266 350 C266.83221904 332.44648517 266.83221904 332.44648517 267.13371277 314.9041748 C267.1371111 313.36914944 267.1371111 313.36914944 267.14057809 311.80311346 C267.14675528 308.47745377 267.14609963 305.15183654 267.14526367 301.82617188 C267.14826495 299.40066985 267.15166967 296.9751683 267.15544128 294.54966736 C267.16327491 288.71173545 267.16649088 282.8738158 267.16705366 277.0358789 C267.1675329 272.29106362 267.1696076 267.54625162 267.17275429 262.80143738 C267.18152162 249.30441327 267.18617842 235.80739701 267.18542381 222.31037003 C267.18538386 221.58742546 267.1853439 220.86448089 267.18530273 220.11962891 C267.18524141 219.0338702 267.18524141 219.0338702 267.18517885 217.92617697 C267.18477076 206.14711004 267.1943914 194.36807483 267.2084411 182.58901709 C267.22280392 170.45078969 267.22971173 158.31257779 267.22884732 146.17434168 C267.22851592 139.37638149 267.23123998 132.5784548 267.24202538 125.78050232 C267.25169043 119.40436623 267.25179651 113.02830111 267.24450874 106.65216255 C267.24346173 104.31364908 267.24583268 101.97513121 267.2518692 99.63662529 C267.25957374 96.44569529 267.2549548 93.25501152 267.24723816 90.06408691 C267.2549535 88.67660854 267.2549535 88.67660854 267.26282471 87.26110029 C267.25822592 86.40094832 267.25362712 85.54079635 267.24888897 84.65457916 C267.24910634 83.9193775 267.24932371 83.18417584 267.24954766 82.42669535 C266.98757701 79.18395188 266.98757701 79.18395188 265 73 C245.53 73 226.06 73 206 73 C206 53.53 206 34.06 206 14 C200.93236673 12.31078891 197.37305127 11.71696092 192.2171936 11.75949097 C191.45252632 11.75778212 190.68785903 11.75607327 189.90002 11.75431263 C187.34812641 11.751029 184.79649812 11.76200275 182.24462891 11.77294922 C180.41125495 11.77351358 178.57788053 11.77319629 176.74450684 11.77206421 C171.77390659 11.77149066 166.80340298 11.78324547 161.83282518 11.79721212 C156.6358187 11.80971898 151.43880998 11.81088995 146.24179077 11.81326294 C136.40341352 11.81947783 126.56508075 11.8358888 116.72672307 11.85596192 C105.52486859 11.87832061 94.32301197 11.88931428 83.12114072 11.89935279 C60.08073583 11.920255 37.04037041 11.95543119 14 12 Z " fill="#2C88D0" transform="translate(205,0)"/>
<path d="M0 0 C0.77140823 -0.00014603 1.54281647 -0.00029205 2.33760071 -0.0004425 C4.86979045 0.00025031 7.40190525 0.00801298 9.93408203 0.01586914 C11.69670573 0.01773556 13.45932994 0.01915841 15.22195435 0.02015686 C19.84807787 0.02396437 24.47416971 0.0337795 29.10028076 0.04486084 C33.82612683 0.05511301 38.55197804 0.05966262 43.27783203 0.06469727 C52.54086674 0.07540341 61.803878 0.09245853 71.06689453 0.11352539 C71.84630963 14.67654414 72.21772176 29.19103699 72.19970703 43.77368164 C72.20038336 45.7480826 72.2013561 47.72248348 72.2026062 49.69688416 C72.20406186 53.78149224 72.20199457 57.86607813 72.19726562 61.95068359 C72.19150457 67.18017575 72.19490052 72.40961729 72.20083809 77.6391077 C72.20444703 81.6925444 72.20330468 85.745969 72.2007103 89.79940605 C72.20004528 91.7294967 72.20085455 93.65958846 72.20318985 95.58967781 C72.20572885 98.27091538 72.20186105 100.95206944 72.19628906 103.63330078 C72.19831329 104.42232788 72.20033752 105.21135498 72.2024231 106.02429199 C72.18771096 109.84526881 71.99438517 113.399161 71.06689453 117.11352539 C60.87020284 117.1367157 50.67351745 117.15447459 40.47680473 117.16533756 C35.74185122 117.17055175 31.00691577 117.17762281 26.27197266 117.18896484 C21.70082548 117.19984576 17.12969566 117.20581327 12.55853653 117.20840263 C10.8162725 117.2102475 9.0740094 117.21385004 7.33175278 117.21925545 C4.88781444 117.22653494 2.44394747 117.22751342 0 117.22705078 C-1.07570503 117.2324437 -1.07570503 117.2324437 -2.17314148 117.23794556 C-6.19785602 117.22972429 -9.98414433 116.89081003 -13.93310547 116.11352539 C-14.73303239 113.29382974 -15.05857327 110.79292676 -15.06008911 107.865448 C-15.06431885 106.60413307 -15.06431885 106.60413307 -15.06863403 105.31733704 C-15.0666098 104.403004 -15.06458557 103.48867096 -15.0625 102.54663086 C-15.06425232 101.57699905 -15.06600464 100.60736725 -15.06781006 99.60835266 C-15.07221488 96.39912125 -15.06929399 93.18994488 -15.06591797 89.98071289 C-15.06659173 87.74594105 -15.06756236 85.51116929 -15.06881714 83.27639771 C-15.07029253 78.58733423 -15.06814584 73.89828978 -15.06347656 69.20922852 C-15.05779915 63.21743172 -15.06104665 57.22567993 -15.06704903 51.23388481 C-15.07067581 46.61489528 -15.069506 41.99591628 -15.06692123 37.37692642 C-15.06625679 35.1690686 -15.06706343 32.9612098 -15.06940079 30.75335312 C-15.0719599 27.65447237 -15.06804022 24.55566262 -15.0625 21.45678711 C-15.06452423 20.55459946 -15.06654846 19.6524118 -15.06863403 18.72288513 C-15.0491641 12.80009801 -14.62388803 6.99537254 -13.93310547 1.11352539 C-9.26124966 0.19395145 -4.7443803 -0.02378536 0 0 Z M-0.93310547 14.11352539 C-0.93310547 43.81352539 -0.93310547 73.51352539 -0.93310547 104.11352539 C10.88501953 104.14446289 10.88501953 104.14446289 22.94189453 104.17602539 C25.40899902 104.18512939 27.87610352 104.1942334 30.41796875 104.20361328 C32.40250596 104.20653753 34.38704377 104.20908488 36.37158203 104.21118164 C37.8818396 104.21885559 37.8818396 104.21885559 39.42260742 104.22668457 C40.41623291 104.22680542 41.4098584 104.22692627 42.43359375 104.22705078 C43.28186737 104.22927139 44.13014099 104.231492 45.00411987 104.23377991 C49.3709961 104.06232211 53.71834228 103.54838062 58.06689453 103.11352539 C58.06689453 73.74352539 58.06689453 44.37352539 58.06689453 14.11352539 C38.59689453 14.11352539 19.12689453 14.11352539 -0.93310547 14.11352539 Z " fill="#2F8AD1" transform="translate(243.93310546875,22.886474609375)"/>
<path d="M0 0 C1.1735051 -0.00281982 2.34701019 -0.00563965 3.55607605 -0.00854492 C5.49716248 -0.00550858 5.49716248 -0.00550858 7.47746277 -0.00241089 C8.84893846 -0.00376539 10.22041379 -0.00554559 11.59188843 -0.00772095 C15.3234007 -0.0122908 19.0548854 -0.01050721 22.78639817 -0.00734186 C26.68917304 -0.00481443 30.5919455 -0.00715702 34.49472046 -0.00872803 C41.0527743 -0.01054925 47.61081689 -0.00814534 54.16886902 -0.00338745 C61.74870928 0.00204828 69.32852261 0.00029734 76.90836221 -0.00521386 C83.41373704 -0.00975446 89.91910376 -0.01039068 96.42447966 -0.00777519 C100.31073967 -0.00621676 104.19698704 -0.00600665 108.08324623 -0.00931168 C111.73985742 -0.01220388 115.396434 -0.01018985 119.05304146 -0.00441742 C121.03327004 -0.00246748 123.01350155 -0.00543274 124.99372864 -0.00854492 C126.17569321 -0.0057251 127.35765778 -0.00290527 128.57543945 0 C129.60064099 0.00037703 130.62584253 0.00075405 131.68211079 0.0011425 C134.38310797 0.12270413 136.84772455 0.51961085 139.47819519 1.12698364 C139.50543669 2.54354157 139.52469986 3.96025409 139.54069519 5.37698364 C139.55229675 6.16588989 139.56389832 6.95479614 139.57585144 7.76760864 C139.48175568 10.04096224 139.06171453 11.93828133 138.47819519 14.12698364 C130.94863014 15.14216176 123.5635736 15.26253157 115.97209167 15.24050903 C114.63087974 15.24022644 113.28966765 15.24038631 111.94845581 15.24095154 C108.33338779 15.24123668 104.71835343 15.23538586 101.10329318 15.22837758 C97.31566971 15.22209678 93.52804535 15.22153652 89.74041748 15.22035217 C82.57960124 15.21725274 75.41880038 15.20905816 68.2579909 15.19900268 C60.10074484 15.18779832 51.94349802 15.18232023 43.78624618 15.17730725 C27.01688686 15.1668743 10.24754299 15.14930188 -6.52180481 15.12698364 C-8.03717447 11.55747921 -8.76616369 9.25379804 -8.27180481 5.37698364 C-8.18414856 4.59838989 -8.09649231 3.81979614 -8.00617981 3.01760864 C-7.84633606 2.39370239 -7.68649231 1.76979614 -7.52180481 1.12698364 C-4.89211527 -0.18786113 -2.94600345 0.00108461 0 0 Z " fill="#3990D4" transform="translate(309.5218048095703,293.8730163574219)"/>
<path d="M0 0 C1.82364326 -0.00412399 1.82364326 -0.00412399 3.68412781 -0.0083313 C5.03334144 -0.00125305 6.38255407 0.00601657 7.73176575 0.01345825 C9.15090934 0.01402233 10.57005352 0.01370588 11.98919678 0.01257324 C15.84431905 0.01199859 19.69931729 0.02377109 23.5544107 0.03772116 C27.58229811 0.05020975 31.61018825 0.05139754 35.63809204 0.05377197 C43.26661896 0.05999225 50.89508867 0.07641047 58.52359039 0.09647095 C67.20788814 0.11881292 75.8921886 0.1298191 84.57650793 0.13986182 C102.44185093 0.16077623 120.30714066 0.19596284 138.17243958 0.24050903 C139.59022251 3.0760749 139.03501579 5.23137964 138.73493958 8.36550903 C138.63310364 9.46121216 138.5312677 10.55691528 138.42634583 11.68582153 C138.34255676 12.52886841 138.2587677 13.37191528 138.17243958 14.24050903 C119.30134 14.28717964 100.4302521 14.32247359 81.55910683 14.34413338 C72.79738565 14.35445661 64.03570028 14.36853687 55.27400208 14.39138794 C47.63946617 14.41128984 40.00495619 14.42421785 32.37039506 14.42868602 C28.32600024 14.43129885 24.2816796 14.4374617 20.2373085 14.45196915 C16.43379933 14.46550259 12.6303952 14.46974032 8.82686424 14.4667244 C7.42799878 14.46727647 6.02912996 14.47127911 4.63028526 14.47891998 C2.72611887 14.48881442 0.82189664 14.48529941 -1.08229065 14.48101807 C-2.68344506 14.48378345 -2.68344506 14.48378345 -4.31694603 14.48660469 C-6.82756042 14.24050903 -6.82756042 14.24050903 -8.82756042 12.24050903 C-9.12834167 9.92800903 -9.12834167 9.92800903 -9.14006042 7.24050903 C-9.15681824 6.35363403 -9.17357605 5.46675903 -9.19084167 4.55300903 C-9.07095886 3.78988403 -8.95107605 3.02675903 -8.82756042 2.24050903 C-5.36515616 -0.06776048 -4.08012715 -0.00710205 0 0 Z " fill="#338CD1" transform="translate(309.8275604248047,233.75949096679688)"/>
<path d="M0 0 C17.70714315 -0.02317943 35.41428106 -0.04101023 53.12143612 -0.05181217 C61.34373937 -0.05696169 69.566033 -0.06397874 77.78833008 -0.07543945 C84.95744968 -0.0854274 92.12656232 -0.0918632 99.29568869 -0.09408849 C103.08933059 -0.09538863 106.88295256 -0.09843019 110.67658806 -0.10573006 C114.25274378 -0.1125552 117.8288715 -0.11460383 121.40503311 -0.11310768 C123.33203235 -0.11351074 125.2590286 -0.11887192 127.1860199 -0.12442017 C133.54478938 -0.11691773 139.69672462 0.14882133 146 1 C146.98248196 5.05273808 147.16017882 8.83535074 147 13 C145.24891556 14.75108444 142.80495271 14.12613634 140.42640686 14.12698364 C139.21628433 14.12980347 138.0061618 14.13262329 136.7593689 14.13552856 C135.40606675 14.13358396 134.05276474 14.13153577 132.69946289 14.12939453 C131.28385879 14.13074855 129.86825505 14.13252849 128.45265198 14.13470459 C124.59731923 14.13927925 120.74201312 14.13748912 116.88667989 14.1343255 C112.85970946 14.13180158 108.83274139 14.13413958 104.80577087 14.13571167 C98.04083851 14.13753348 91.27591704 14.13512698 84.51098633 14.13037109 C76.6817392 14.12493065 68.85251812 14.1266895 61.02327162 14.1321975 C54.31159621 14.13673093 47.59992865 14.13737798 40.8882522 14.13475883 C36.8751997 14.13319704 32.86215946 14.13299957 28.84910774 14.13629532 C25.07596934 14.13917728 21.3028646 14.13719232 17.52972984 14.13140106 C16.14215781 14.13007512 14.75458295 14.13046478 13.36701202 14.13266373 C11.47820128 14.13538173 9.58938437 14.1313747 7.70057678 14.12698364 C6.64181367 14.12660662 5.58305056 14.12622959 4.49220371 14.12584114 C2 14 2 14 0 13 C0 8.71 0 4.42 0 0 Z " fill="#2E89D1" transform="translate(302,174)"/>
<path d="M0 0 C0.68126953 -0.00386719 1.36253906 -0.00773437 2.06445312 -0.01171875 C6.12593354 -0.00391571 9.95347503 0.34186873 13.9375 1.125 C13.9375 1.785 13.9375 2.445 13.9375 3.125 C14.68 3.351875 15.4225 3.57875 16.1875 3.8125 C20.17202282 5.71420407 22.11154797 7.90469884 23.6640625 12.078125 C25.7637466 20.30888666 24.65516403 28.76518383 23.9375 37.125 C20.17057731 38.32998448 16.44289061 38.26936466 12.53125 38.2578125 C11.45043152 38.25924759 11.45043152 38.25924759 10.34777832 38.26071167 C8.82136956 38.2613913 7.29495788 38.25955214 5.76855469 38.25537109 C3.47323799 38.25008235 1.17812263 38.25529069 -1.1171875 38.26171875 C-9.48213984 38.26512135 -17.7344596 38.01324338 -26.0625 37.125 C-25.98101657 33.43663664 -25.86822732 29.74985403 -25.75 26.0625 C-25.72744141 25.02416016 -25.70488281 23.98582031 -25.68164062 22.91601562 C-25.47248898 16.9266731 -24.8762342 12.44318394 -22.0625 7.125 C-21.4025 7.125 -20.7425 7.125 -20.0625 7.125 C-19.794375 6.50625 -19.52625 5.8875 -19.25 5.25 C-18.0625 3.125 -18.0625 3.125 -15.0625 1.125 C-10.04335317 0.15196295 -5.0969593 -0.02909777 0 0 Z " fill="#2987D0" transform="translate(273.0625,83.875)"/>
<path d="M0 0 C0.89137382 0.00092179 1.78274763 0.00184359 2.70113277 0.00279331 C3.72062008 0.00141865 4.74010738 0.00004398 5.79048824 -0.00137234 C6.91833233 0.00222294 8.04617641 0.00581821 9.20819759 0.00952244 C10.38852566 0.00937641 11.56885372 0.00923038 12.7849493 0.00907993 C16.03067141 0.00965888 19.27635088 0.01468796 22.52206445 0.02165389 C25.91068065 0.02788821 29.29929761 0.02849129 32.68791866 0.0296793 C39.10880837 0.03279238 45.52968114 0.04100546 51.95056337 0.05102879 C59.25878857 0.06219063 66.56701457 0.06770055 73.87524617 0.07272422 C88.91259034 0.0831881 103.94991864 0.1007871 118.98725033 0.12304783 C119.77820602 3.10660812 120.12247866 5.71647595 120.11225033 8.81054783 C120.11611752 9.99197361 120.11611752 9.99197361 120.12006283 11.19726658 C119.98725033 13.12304783 119.98725033 13.12304783 118.98725033 14.12304783 C117.42069574 14.22112808 115.8497188 14.2493666 114.28009701 14.25003147 C112.75303379 14.25426121 112.75303379 14.25426121 111.19512081 14.25857639 C109.50571125 14.25554005 109.50571125 14.25554005 107.7821722 14.25244236 C106.60345043 14.25419468 105.42472866 14.255947 104.21028805 14.25775242 C100.96863425 14.2614105 97.727021 14.26053756 94.48536777 14.25737333 C91.099886 14.25484927 87.71440701 14.2571874 84.32892513 14.2587595 C78.64260017 14.26058106 72.95628817 14.25817524 67.26996517 14.25341892 C60.68697015 14.24797632 54.1040061 14.24973899 47.52101183 14.25524533 C41.8785572 14.25977684 36.23611192 14.26042682 30.59365606 14.25780666 C27.2194728 14.2562441 23.84530412 14.25604955 20.47112179 14.25934315 C16.71150237 14.26186795 12.95194335 14.2580315 9.19232845 14.25244236 C8.06605541 14.25446659 6.93978237 14.25649082 5.77937984 14.25857639 C4.7613377 14.25575657 3.74329556 14.25293674 2.69440365 14.25003147 C1.80432865 14.24965445 0.91425365 14.24927742 -0.00279331 14.24888897 C-2.01274967 14.12304783 -2.01274967 14.12304783 -3.01274967 13.12304783 C-3.11148783 11.12505211 -3.14246766 9.12347625 -3.13774967 7.12304783 C-3.1403278 6.02992283 -3.14290592 4.93679783 -3.14556217 3.81054783 C-2.96621163 0.18133696 -2.96621163 0.18133696 0 0 Z " fill="#348CD1" transform="translate(329.01274967193604,107.87695217132568)"/>
<path d="M0 0 C0.89137382 0.00092179 1.78274763 0.00184359 2.70113277 0.00279331 C3.72062008 0.00141865 4.74010738 0.00004398 5.79048824 -0.00137234 C6.91833233 0.00222294 8.04617641 0.00581821 9.20819759 0.00952244 C10.38852566 0.00937641 11.56885372 0.00923038 12.7849493 0.00907993 C16.03067141 0.00965888 19.27635088 0.01468796 22.52206445 0.02165389 C25.91068065 0.02788821 29.29929761 0.02849129 32.68791866 0.0296793 C39.10880837 0.03279238 45.52968114 0.04100546 51.95056337 0.05102879 C59.25878857 0.06219063 66.56701457 0.06770055 73.87524617 0.07272422 C88.91259034 0.0831881 103.94991864 0.1007871 118.98725033 0.12304783 C119.18191365 1.91395036 119.36776246 3.70581288 119.54975033 5.49804783 C119.70637142 6.99464939 119.70637142 6.99464939 119.86615658 8.52148533 C119.98725033 11.12304783 119.98725033 11.12304783 118.98725033 13.12304783 C112.26261838 14.19673905 105.60488914 14.26616784 98.80780697 14.25244236 C97.18668499 14.25507084 97.18668499 14.25507084 95.53281307 14.25775242 C91.98766089 14.26212703 88.4425592 14.25924992 84.89740658 14.25586033 C82.42641344 14.25653428 79.95542036 14.25750508 77.48442745 14.2587595 C72.32089255 14.26023022 67.157375 14.25810073 61.99384212 14.25341892 C55.36355153 14.24770104 48.73330123 14.25101757 42.10301208 14.25699139 C37.00825856 14.26059604 31.91351468 14.25945922 26.81876087 14.25686359 C24.37263071 14.25619514 21.92649967 14.2570199 19.48037052 14.25934315 C16.07386718 14.26187034 12.66743033 14.25802905 9.26093197 14.25244236 C8.24432995 14.25446659 7.22772793 14.25649082 6.18031979 14.25857639 C4.7947488 14.25434666 4.7947488 14.25434666 3.38118649 14.25003147 C2.57616727 14.24965445 1.77114805 14.24927742 0.94173431 14.24888897 C-1.01274967 14.12304783 -1.01274967 14.12304783 -3.01274967 13.12304783 C-3.0396152 11.14395385 -3.05908343 9.16475812 -3.07524967 7.18554783 C-3.08685123 6.08339939 -3.0984528 4.98125095 -3.11040592 3.84570408 C-2.97900042 0.18211879 -2.97900042 0.18211879 0 0 Z " fill="#328CD2" transform="translate(329.01274967193604,83.87695217132568)"/>
<path d="M0 0 C4.02650082 2.73448078 6.71067176 5.79049899 8.77734375 10.20703125 C9.91469094 16.27071658 10.32069484 22.24748016 7.40234375 27.84375 C4.19398196 31.71813333 0.59775662 34.63301889 -4.22265625 36.20703125 C-10.80148269 36.72916033 -16.6521632 36.35907195 -21.91015625 31.95703125 C-22.67328125 31.04953125 -23.43640625 30.14203125 -24.22265625 29.20703125 C-24.98578125 28.34078125 -25.74890625 27.47453125 -26.53515625 26.58203125 C-28.97031231 21.71171914 -29.20481175 17.54611716 -28.22265625 12.20703125 C-25.82135136 6.88586725 -22.68012534 2.58592803 -17.22265625 0.20703125 C-16.43890625 -0.18484375 -15.65515625 -0.57671875 -14.84765625 -0.98046875 C-9.76098052 -2.554916 -4.82836275 -2.39775837 0 0 Z " fill="#2D89D1" transform="translate(282.22265625,223.79296875)"/>
<path d="M0 0 C0.763125 0.474375 1.52625 0.94875 2.3125 1.4375 C2.3125 2.0975 2.3125 2.7575 2.3125 3.4375 C2.9725 3.4375 3.6325 3.4375 4.3125 3.4375 C7.92587593 8.10477724 9.67073573 13.86121453 9.08203125 19.73828125 C7.33195423 26.53891613 2.80387515 30.35283385 -2.6875 34.4375 C-5.89229384 36.03989692 -9.20189683 35.79175368 -12.6875 35.4375 C-17.76489096 33.68667553 -23.82585158 31.51691844 -26.7265625 26.71875 C-29.32964951 20.58811518 -29.79106161 14.45777387 -27.5 8.1875 C-20.86295775 -1.88249514 -11.15463698 -5.53757513 0 0 Z " fill="#2987D0" transform="translate(282.6875,164.5625)"/>
<path d="M0 0 C0 0.66 0 1.32 0 2 C0.99 2 1.98 2 3 2 C6.93159805 4.86240544 9.64720155 8.13238863 10.55859375 12.95703125 C10.71231508 20.14576389 9.71588584 25.50814678 5.25 31.25 C-0.3807532 35.62947471 -5.38045091 36.54694757 -12.3984375 36.36328125 C-16.2564265 35.82455306 -18.14794678 34.62080567 -21 32 C-21 31.34 -21 30.68 -21 30 C-21.61875 29.773125 -22.2375 29.54625 -22.875 29.3125 C-25.78601333 27.51452118 -26.15372627 26.3145721 -27 23 C-27.84599223 16.39869699 -26.85824381 10.51943212 -23 5 C-20.51257063 2.90505436 -17.91635303 1.4183045 -15 0 C-14.34128906 -0.37898438 -13.68257813 -0.75796875 -13.00390625 -1.1484375 C-8.82028134 -2.92627421 -4.16653696 -1.38884565 0 0 Z M-11 15 C-11.33 15.99 -11.66 16.98 -12 18 C-11.01 18.99 -10.02 19.98 -9 21 C-8.01 20.67 -7.02 20.34 -6 20 C-6 18.35 -6 16.7 -6 15 C-7.65 15 -9.3 15 -11 15 Z " fill="#2C88D1" transform="translate(281,284)"/>
<path d="M0 0 C0.33 0.66 0.66 1.32 1 2 C2.2375 2.680625 2.2375 2.680625 3.5 3.375 C6 5 6 5 6.625 7.125 C6.74875 7.74375 6.8725 8.3625 7 9 C7.99 9.33 8.98 9.66 10 10 C10.10845031 12.56364483 10.18749744 15.12266279 10.25 17.6875 C10.30027344 18.7693457 10.30027344 18.7693457 10.3515625 19.87304688 C10.42323839 23.79730202 10.2538214 25.59461995 8.109375 29.01953125 C6 31 6 31 4 31 C3.67 31.99 3.34 32.98 3 34 C-2.23228927 36.94316272 -7.03225982 38.03786786 -13 37 C-18.89064225 34.92772194 -23.18340018 31.75860001 -26.19140625 26.2421875 C-28.18176346 20.72303271 -27.75241445 15.23531324 -25.5 9.875 C-25.005 8.92625 -24.51 7.9775 -24 7 C-23.34 7 -22.68 7 -22 7 C-21.7525 6.1028125 -21.7525 6.1028125 -21.5 5.1875 C-16.8844039 -1.54357764 -7.17318534 -0.32279334 0 0 Z M-11 16 C-11.6814823 17.89179203 -11.6814823 17.89179203 -12 20 C-11.34 20.66 -10.68 21.32 -10 22 C-7.39719432 21.67958603 -7.39719432 21.67958603 -5 21 C-5.33 19.35 -5.66 17.7 -6 16 C-7.65 16 -9.3 16 -11 16 Z " fill="#2B88D1" transform="translate(281,42)"/>
<path d="M0 0 C1.2117691 -0.00095673 2.42353821 -0.00191345 3.67202759 -0.00289917 C6.21152804 -0.00357486 8.75103028 -0.00176359 11.29052734 0.00244141 C15.17419284 0.00782655 19.05774417 0.00246121 22.94140625 -0.00390625 C25.41927109 -0.00324591 27.89713585 -0.00196566 30.375 0 C32.10947891 -0.00303635 32.10947891 -0.00303635 33.8789978 -0.00613403 C34.96097443 -0.00298187 36.04295105 0.00017029 37.15771484 0.00341797 C38.1030307 0.00421356 39.04834656 0.00500916 40.02230835 0.00582886 C43.00817853 0.1428691 45.8525834 0.58731796 48.7890625 1.1328125 C48.98457588 2.73602224 49.17018233 4.34044236 49.3515625 5.9453125 C49.50818359 7.28529297 49.50818359 7.28529297 49.66796875 8.65234375 C49.7890625 11.1328125 49.7890625 11.1328125 48.7890625 14.1328125 C24.3690625 14.1328125 -0.0509375 14.1328125 -25.2109375 14.1328125 C-25.2109375 9.8428125 -25.2109375 5.5528125 -25.2109375 1.1328125 C-16.77622064 0.33128755 -8.46981991 -0.0149845 0 0 Z " fill="#328CD3" transform="translate(351.2109375,58.8671875)"/>
<path d="M0 0 C1.7074998 1.28062485 3.37373596 2.61767557 5 4 C5 4.66 5 5.32 5 6 C5.99 6.33 6.98 6.66 8 7 C8 7.66 8 8.32 8 9 C8.57234375 9.2475 9.1446875 9.495 9.734375 9.75 C12.35010611 11.19316199 14.14773456 12.88216222 16.25 15 C16.95640625 15.70125 17.6628125 16.4025 18.390625 17.125 C20 19 20 19 20 21 C20.99 21.33 21.98 21.66 23 22 C23 22.66 23 23.32 23 24 C23.99 24.33 24.98 24.66 26 25 C26 25.66 26 26.32 26 27 C26.99 27.33 27.98 27.66 29 28 C29 28.66 29 29.32 29 30 C29.99 30.33 30.98 30.66 32 31 C32 31.66 32 32.32 32 33 C32.99 33.33 33.98 33.66 35 34 C36.38576923 35.62332967 37.72641268 37.28724465 39 39 C34.68227756 40.06378669 30.49257744 40.1294216 26.07421875 40.09765625 C24.95283257 40.09553383 24.95283257 40.09553383 23.80879211 40.09336853 C21.43498635 40.08779764 19.06127697 40.0752506 16.6875 40.0625 C15.07226699 40.05748123 13.4570325 40.05291899 11.84179688 40.04882812 C7.89449445 40.03783775 3.94726353 40.02059332 0 40 C-1.42631863 37.14736273 -1.12980647 34.70940369 -1.1328125 31.5234375 C-1.13410156 30.21246094 -1.13539063 28.90148437 -1.13671875 27.55078125 C-1.13462402 26.8645166 -1.1325293 26.17825195 -1.13037109 25.47119141 C-1.12507404 23.40389477 -1.13029092 21.33682064 -1.13671875 19.26953125 C-1.13035307 12.7574432 -1.04197676 6.43379302 0 0 Z " fill="#78B5E5" transform="translate(424,21)"/>
<path d="M0 0 C2.31687897 0.00538297 4.63356619 0.00001671 6.95043945 -0.00634766 C8.43937217 -0.00568719 9.92830476 -0.00440669 11.41723633 -0.00244141 C12.10174362 -0.00446564 12.78625092 -0.00648987 13.49150085 -0.00857544 C17.47048031 0.01068488 21.21961659 0.36798941 25.12426758 1.13037109 C25.31978096 2.73358083 25.5053874 4.33800095 25.68676758 5.94287109 C25.84338867 7.28285156 25.84338867 7.28285156 26.00317383 8.64990234 C26.12426758 11.13037109 26.12426758 11.13037109 25.12426758 14.13037109 C8.95426758 14.13037109 -7.21573242 14.13037109 -23.87573242 14.13037109 C-24.90535 8.98228321 -24.64704912 6.18678055 -23.87573242 1.13037109 C-15.92331399 -0.01216565 -8.01504428 -0.02219997 0 0 Z " fill="#358ED3" transform="translate(374.875732421875,34.86962890625)"/>
<path d="M0 0 C0.86753906 -0.02384766 1.73507812 -0.04769531 2.62890625 -0.07226562 C8.88088398 -0.05777109 8.88088398 -0.05777109 11.59375 2.66015625 C12.5 5.5625 12.5 5.5625 12.5 12.5625 C4.58 12.5625 -3.34 12.5625 -11.5 12.5625 C-12.7537956 8.80111321 -13.183932 6.13902122 -11.578125 2.4375 C-8.17860213 -0.62973868 -4.41353015 -0.05574295 0 0 Z " fill="#77B5E5" transform="translate(272.5,96.4375)"/>
<path d="M0 0 C2.61173635 2.61173635 2.2981789 3.87198888 2.3125 7.5 C2.32925781 8.4796875 2.34601563 9.459375 2.36328125 10.46875 C2.18345703 11.72171875 2.18345703 11.72171875 2 13 C-2.65613519 16.10409013 -6.52973114 14.64356104 -12 14 C-12 9.71 -12 5.42 -12 1 C-2.8203125 0.0234375 -2.8203125 0.0234375 0 0 Z " fill="#4294D4" transform="translate(338,35)"/>
<path d="M0 0 C6.57692308 0.57692308 6.57692308 0.57692308 8 2 C8.37086093 7.8410596 8.37086093 7.8410596 8 10 C4.52648925 12.31567384 3.08600528 12.59587577 -1 12 C-3 9.8125 -3 9.8125 -4 7 C-3.18795587 3.82564566 -2.31819425 2.31819425 0 0 Z " fill="#77B5E5" transform="translate(270,175)"/>
<path d="M0 0 C2.5625 0.875 2.5625 0.875 4.5 3.125 C5.5625 5.875 5.5625 5.875 4.8125 8.625 C3.5625 10.875 3.5625 10.875 2.5625 11.875 C0.22952567 11.91592937 -2.10455225 11.91741723 -4.4375 11.875 C-6 9.0625 -6 9.0625 -7.4375 5.875 C-7.1075 4.885 -6.7775 3.895 -6.4375 2.875 C-5.7775 2.875 -5.1175 2.875 -4.4375 2.875 C-4.4375 2.215 -4.4375 1.555 -4.4375 0.875 C-2.4375 -0.125 -2.4375 -0.125 0 0 Z " fill="#77B5E5" transform="translate(273.4375,235.125)"/>
<path d="M0 0 C2.03144641 0.93446535 4.03533587 1.93224776 6 3 C6 5.64 6 8.28 6 11 C3.3125 12.1875 3.3125 12.1875 0 13 C-2.96961443 11.81215423 -4.47884963 10.91967713 -6.0625 8.125 C-5.96560927 4.83071518 -4.20053785 3.32628287 -2 1 C-1.34 0.67 -0.68 0.34 0 0 Z M-2 4 C-2.33 4.99 -2.66 5.98 -3 7 C-2.01 7.99 -1.02 8.98 0 10 C0.99 9.67 1.98 9.34 3 9 C3 7.35 3 5.7 3 4 C1.35 4 -0.3 4 -2 4 Z " fill="#79B6E5" transform="translate(272,295)"/>
<path d="M0 0 C1.4783226 2.95664519 1.06032783 5.74229737 1 9 C-1.8125 10.5625 -1.8125 10.5625 -5 12 C-5.99 11.67 -6.98 11.34 -8 11 C-8 10.34 -8 9.68 -8 9 C-8.66 9 -9.32 9 -10 9 C-10.88910615 6.09019806 -11.22167778 4.54680518 -10.0625 1.6875 C-6.83426664 -0.95378184 -4.08676931 -0.26798487 0 0 Z M-7 3 C-7.6814823 4.89179203 -7.6814823 4.89179203 -8 7 C-7.34 7.66 -6.68 8.32 -6 9 C-3.39719432 8.67958603 -3.39719432 8.67958603 -1 8 C-1.33 6.35 -1.66 4.7 -2 3 C-3.65 3 -5.3 3 -7 3 Z " fill="#78B5E5" transform="translate(277,55)"/>
<path d="M0 0 C0.66 0.33 1.32 0.66 2 1 C-0.31 3.64 -2.62 6.28 -5 9 C-5.33 8.01 -5.66 7.02 -6 6 C-2.83636364 1.41818182 -2.83636364 1.41818182 0 0 Z " fill="#8CBADE" transform="translate(262,165)"/>
</svg>
