<?xml version="1.0" encoding="UTF-8"?>
<svg version="1.1" xmlns="http://www.w3.org/2000/svg" width="491" height="508">
<path d="M0 0 C2.16678034 -0.004356 4.33355914 -0.00954209 6.50033569 -0.01548767 C12.34566279 -0.028795 18.1909249 -0.02946548 24.03626418 -0.02692437 C28.93620417 -0.02584878 33.83613133 -0.03075311 38.73606855 -0.03552979 C50.30826785 -0.04659693 61.88043469 -0.04707849 73.45263672 -0.04101562 C85.34332136 -0.03498112 97.23388752 -0.04728008 109.12455195 -0.06858569 C119.37562056 -0.08627002 129.62665168 -0.09219223 139.87773496 -0.08894795 C145.98151807 -0.08714543 152.08521669 -0.08966711 158.18898582 -0.10366249 C163.93556036 -0.11634753 169.68195191 -0.114197 175.42852402 -0.1012516 C177.52129875 -0.09890913 179.61408681 -0.10153536 181.70684624 -0.10987473 C198.44873659 -0.17170751 215.26895337 0.82616257 231.33129883 5.9621582 C232.1446167 6.21489502 232.95793457 6.46763184 233.79589844 6.72802734 C246.39802938 10.80298989 258.3300992 16.61429072 269.14379883 24.2746582 C270.13250977 24.96688477 271.1212207 25.65911133 272.13989258 26.37231445 C298.79450802 45.91468245 317.14473761 72.83518559 325.89379883 104.6496582 C326.19205566 105.70793823 326.19205566 105.70793823 326.49633789 106.78759766 C330.3647866 121.72226478 330.44007378 137.10731542 330.41845703 152.42407227 C330.42281553 154.49100425 330.42800242 156.55793463 330.4339447 158.62486267 C330.4472243 164.18915664 330.44792574 169.75338224 330.4453814 175.31768894 C330.44430404 179.98649974 330.44921451 184.65529713 330.45398682 189.32410502 C330.46504407 200.35174123 330.46554094 211.37934337 330.45947266 222.40698242 C330.45343718 233.72965397 330.46574187 245.05220112 330.48704273 256.37485147 C330.50473799 266.14530097 330.51064761 275.91571115 330.50740498 285.68617606 C330.50560442 291.49988683 330.50810427 297.31350885 330.52211952 303.1272049 C330.53482292 308.6004937 330.53263726 314.07359057 330.51970863 319.54687691 C330.51737018 321.53764223 330.51997734 323.5284216 330.52833176 325.51917076 C330.68628732 366.13607658 319.02936038 403.72736058 290.20239258 433.2824707 C274.15159169 449.21468232 255.12909165 460.7275145 233.76879883 468.0871582 C232.5862854 468.50408936 232.5862854 468.50408936 231.37988281 468.92944336 C215.25402789 474.21623966 198.93947478 474.71763623 182.13671875 474.67871094 C179.88244796 474.68442735 177.62818006 474.69139647 175.37391663 474.69950867 C169.30347576 474.71731559 163.23318043 474.71629523 157.1627214 474.71056628 C152.07134968 474.70745601 146.98000518 474.71358724 141.88863736 474.71960503 C129.18019037 474.73440577 116.47184526 474.73087161 103.76340459 474.71874172 C92.77910943 474.70881657 81.7949829 474.72174754 70.81071373 474.74567591 C59.47486601 474.77018013 48.13911858 474.77924938 36.80323678 474.77302319 C30.46190799 474.76967254 24.12071839 474.77194162 17.77940941 474.78927422 C11.81113404 474.80487813 5.84317756 474.80064034 -0.12508583 474.78196907 C-2.29806971 474.77831999 -4.47107794 474.78128212 -6.64403915 474.79185486 C-45.98628594 474.96846016 -79.82964029 461.69563864 -108.85620117 435.2746582 C-109.54327148 434.65977539 -110.2303418 434.04489258 -110.93823242 433.41137695 C-135.13957641 410.57029586 -149.59442207 374.9086379 -150.95089197 341.97571695 C-150.9889729 339.67969011 -150.99916424 337.38549523 -150.99664307 335.0891571 C-150.99961419 334.22154953 -151.00258531 333.35394196 -151.00564647 332.46004325 C-151.01424627 329.58272709 -151.01583427 326.70545295 -151.01733398 323.828125 C-151.02196849 321.7523744 -151.026994 319.67662464 -151.03237915 317.60087585 C-151.04544767 311.98040284 -151.0519377 306.35994175 -151.05638981 300.73945594 C-151.05933065 297.21851745 -151.06343741 293.69758215 -151.06789398 290.17664528 C-151.0815568 279.13323854 -151.09122835 268.08983917 -151.09509587 257.04642457 C-151.09956813 244.34992417 -151.11708251 231.65353188 -151.14609647 218.95706433 C-151.16780744 209.11032925 -151.17780522 199.26362437 -151.17913699 189.41686565 C-151.18017867 183.55162277 -151.18594888 177.68648168 -151.2039566 171.82126427 C-151.22060003 166.29308766 -151.222515 160.76508755 -151.2138176 155.23689461 C-151.21305573 153.22516782 -151.2172752 151.21343089 -151.22727585 149.20172882 C-151.37418218 117.76765221 -145.31712596 87.33488259 -126.85620117 61.2746582 C-126.16397461 60.28594727 -125.47174805 59.29723633 -124.75854492 58.27856445 C-105.20075316 31.60291192 -78.22947764 13.19073842 -46.35620117 4.5246582 C-45.63392334 4.32582031 -44.91164551 4.12698242 -44.16748047 3.92211914 C-29.54802701 0.16867144 -14.98929643 -0.0200704 0 0 Z M-77.40307617 81.44262695 C-91.53727211 97.759971 -99.02013289 118.54369876 -98.99664307 140.05711365 C-98.99961419 140.91751867 -99.00258531 141.77792369 -99.00564647 142.66440159 C-99.01428791 145.53506678 -99.01583787 148.40569004 -99.01733398 151.27636719 C-99.02196551 153.3400837 -99.02699062 155.40379936 -99.03237915 157.46751404 C-99.04547591 163.06716848 -99.0519432 168.66681094 -99.05638981 174.2664783 C-99.05932591 177.77044315 -99.06343181 181.27440478 -99.06789398 184.778368 C-99.0815639 195.75716843 -99.09123212 206.73596143 -99.09509587 217.71476978 C-99.09957064 230.35815002 -99.11709368 243.00142184 -99.14609647 255.64476913 C-99.16777164 265.43616435 -99.17780332 275.2275292 -99.17913699 285.01894814 C-99.18018116 290.85780739 -99.18600561 296.69656464 -99.2039566 302.53539848 C-99.22053763 308.03561375 -99.22254446 313.53565146 -99.2138176 319.03588295 C-99.21305247 321.04325718 -99.21731981 323.05064135 -99.22727585 325.05799103 C-99.36292494 354.13734255 -92.25415971 377.93770016 -71.85620117 399.2746582 C-56.85183021 413.55766517 -35.9198684 422.61728161 -15.18785095 422.54208374 C-14.25631669 422.54661485 -13.32478243 422.55114597 -12.36501986 422.55581439 C-9.2655933 422.56840296 -6.16634371 422.56684159 -3.06689453 422.56518555 C-0.83539608 422.57117438 1.39610031 422.57798074 3.62759399 422.58554077 C9.67547426 422.60317487 15.72329788 422.60789515 21.77120137 422.60917234 C25.5555926 422.61059632 29.33996955 422.61487066 33.12435722 422.62016678 C45.66243473 422.63770721 58.20048021 422.64700808 70.73856742 422.64550583 C71.75066209 422.64538596 71.75066209 422.64538596 72.78320312 422.64526367 C73.45876743 422.64518191 74.13433173 422.64510015 74.83036768 422.64501591 C85.76364183 422.64420408 96.69677786 422.66331918 107.6300121 422.69154041 C118.88530467 422.72036102 130.1405322 422.73371046 141.3958692 422.73235285 C147.70308873 422.73184469 154.01015197 422.73744707 160.31733894 422.75870895 C166.25591879 422.77818205 172.19419476 422.77815393 178.1327858 422.76367569 C180.30141714 422.76159751 182.47006795 422.76622872 184.63866615 422.77839661 C200.04105069 422.85915859 214.66881262 421.99915384 228.51879883 414.4621582 C229.17887939 414.11668945 229.83895996 413.7712207 230.51904297 413.4152832 C236.04645649 410.46192023 241.2239253 407.16559509 246.14379883 403.2746582 C247.25948242 402.40454102 247.25948242 402.40454102 248.39770508 401.5168457 C265.82056663 387.03314515 275.86388813 365.59370529 278.14379883 343.2746582 C278.50114889 336.38742721 278.4281197 329.48602031 278.41845703 322.59179688 C278.42281178 320.52719439 278.42799745 318.46259351 278.4339447 316.397995 C278.44726421 310.82346972 278.44792124 305.24901255 278.4453814 299.67447448 C278.44430684 295.00539306 278.44920743 290.33632515 278.45398682 285.66724664 C278.46505775 274.64371392 278.4655331 263.62021527 278.45947266 252.59667969 C278.45343506 241.25922323 278.46574408 229.92189095 278.48704273 218.58445567 C278.50470853 208.81841121 278.51065223 199.05240609 278.50740498 189.28634626 C278.50559984 183.46770523 278.50815103 177.64915278 278.52211952 171.83052635 C278.53477446 166.35484362 278.53268182 160.87935324 278.51970863 155.40367317 C278.51735987 153.40597338 278.52001571 151.40825973 278.52833176 149.41057587 C278.6388562 120.77245525 271.48821329 97.42556897 251.51879883 76.2121582 C235.44827936 60.5119272 213.32544713 52.11090278 191.01293945 52.13421631 C190.11507689 52.13124519 189.21721434 52.12827406 188.29214382 52.12521291 C185.29476927 52.11656739 182.29743485 52.11502117 179.30004883 52.11352539 C177.14604101 52.10889419 174.99203401 52.10386913 172.83802795 52.09848022 C166.99258072 52.08538125 161.14714495 52.07891587 155.30168533 52.07446957 C151.64495948 52.07153413 147.98823673 52.06742839 144.33151245 52.06296539 C132.87697712 52.04929559 121.42244892 52.03962702 109.967906 52.0357635 C96.77098277 52.0312872 83.57416334 52.01375693 70.37727165 51.98476291 C60.16041797 51.96309999 49.94359339 51.95305672 39.726717 51.95172238 C33.63246795 51.95067744 27.53831655 51.94483624 21.4440918 51.92690277 C15.70503608 51.91034282 9.96615058 51.90830489 4.22707939 51.91704178 C2.13059468 51.91780799 0.03410052 51.91352493 -2.06236076 51.90358353 C-31.78176587 51.77101638 -56.19732433 59.73673945 -77.40307617 81.44262695 Z " fill="#146CB5" transform="translate(155.856201171875,22.725341796875)"/>
<path d="M0 0 C0.65274902 0.24733887 1.30549805 0.49467773 1.97802734 0.74951172 C18.65823218 7.22880123 32.32536645 16.44808075 45 29 C45.73605469 29.67546875 46.47210938 30.3509375 47.23046875 31.046875 C67.6740166 50.14384185 79.72379941 80.17920072 81.14355469 107.79199219 C81.98361109 132.91882771 77.58024107 156.07674107 65 178 C64.65066406 178.61069336 64.30132812 179.22138672 63.94140625 179.85058594 C58.64155137 188.94090479 52.32535351 196.48574053 45 204 C44.24460937 204.84046875 43.48921875 205.6809375 42.7109375 206.546875 C24.09707693 226.63193417 -5.16781177 239.43615829 -32.37084961 241.22119141 C-47.68921294 241.72674795 -62.24473755 241.30317623 -77 237 C-77.65564941 236.81808105 -78.31129883 236.63616211 -78.98681641 236.44873047 C-99.47302975 230.67585897 -116.72634009 219.62426961 -132 205 C-132.75796875 204.30519531 -133.5159375 203.61039063 -134.296875 202.89453125 C-156.81442071 181.58050954 -168.32822087 149.23026245 -169.47460938 118.73632812 C-169.82942158 86.61217653 -156.640377 52.64510242 -134.38720703 29.37915039 C-132.9385707 27.90475331 -131.47426192 26.4487268 -130 25 C-128.87658203 23.87851563 -128.87658203 23.87851563 -127.73046875 22.734375 C-110.08974699 6.1082402 -86.57353574 -3.06189765 -63 -7 C-62.2265625 -7.13277344 -61.453125 -7.26554688 -60.65625 -7.40234375 C-40.48260868 -10.23441263 -18.94753806 -7.2059449 0 0 Z M-104.1875 65.1875 C-119.05096878 82.67572918 -123.64528818 103.59753089 -122 126 C-119.05866833 147.81599581 -107.33725014 167.68329156 -89.9296875 181.05078125 C-80.81233962 187.1168567 -70.7878016 191.90140837 -60 194 C-59.071875 194.18175781 -58.14375 194.36351562 -57.1875 194.55078125 C-35.55415251 197.5995986 -13.66291157 192.38314891 3.9296875 179.48046875 C21.56892591 165.22993899 31.8745806 146.39644178 34.5390625 123.91015625 C36.60469224 102.13431902 30.14509233 83.0728749 16.76953125 66.18359375 C2.27464309 49.37978535 -16.65536518 39.50249591 -38.81640625 37.78125 C-63.60877168 36.97170337 -87.18441431 47.32097637 -104.1875 65.1875 Z " fill="#2a7ae4" transform="translate(291,144)"/>
<path d="M0 0 C1.051875 0.556875 2.10375 1.11375 3.1875 1.6875 C8.89626176 6.38137078 12.76137047 12.69208577 14 20 C14.84983722 29.22870102 13.93434095 37.71572717 8.26953125 45.32421875 C2.4570428 51.60077813 -4.86414728 55.39337599 -13.41015625 56.23828125 C-22.92463681 56.50451856 -30.54639038 54.39514515 -37.9375 48.25 C-43.99933093 42.42673845 -46.64736573 36.29629551 -47.203125 27.94921875 C-47.29782094 21.35995976 -47.24483919 15.83076467 -44 10 C-43.63261719 9.32324219 -43.26523437 8.64648438 -42.88671875 7.94921875 C-38.39491118 0.91337858 -30.99935566 -2.89616281 -22.95703125 -4.671875 C-14.56080498 -5.60355665 -7.36774927 -4.01614568 0 0 Z " fill="#186EB6" transform="translate(392,107)"/>
<path d="M0 0 C0.66 0.33 1.32 0.66 2 1 C-3.79137777 7.55808499 -9.74700288 13.88004538 -16 20 C-16.99 19.67 -17.98 19.34 -19 19 C-13.0763504 12.14630879 -6.85369121 5.9236496 0 0 Z " fill="#508FC3" transform="translate(170,161)"/>
<path d="M0 0 C0.66 0.33 1.32 0.66 2 1 C0.26009069 2.98889633 -1.49085675 4.96573765 -3.25 6.9375 C-3.74113281 7.50146484 -4.23226562 8.06542969 -4.73828125 8.64648438 C-7.39017854 11.59893002 -9.09043262 13.29349578 -13 14 C-8.88380164 9.08064098 -4.59589638 4.47352044 0 0 Z " fill="#619AC8" transform="translate(55,55)"/>
<path d="M0 0 C1.32 0.33 2.64 0.66 4 1 C0.535 3.97 0.535 3.97 -3 7 C-2.25 2.25 -2.25 2.25 0 0 Z " fill="#4C8DC2" transform="translate(354,109)"/>
</svg>
