<?xml version="1.0" encoding="UTF-8"?>
<svg version="1.1" xmlns="http://www.w3.org/2000/svg" width="320" height="305">
<path d="M0 0 C15.77963349 13.70842314 22.3941881 29.70512628 26 50 C26.17425507 50.96749176 26.34851013 51.93498352 26.52804565 52.93179321 C27.28959557 58.37606664 27.13903861 63.85931695 27.12939453 69.34521484 C27.13202301 71.18776352 27.13202301 71.18776352 27.13470459 73.0675354 C27.13833932 76.41834271 27.13750544 79.76908788 27.1343255 83.11989164 C27.13178611 86.62945861 27.13414352 90.13902301 27.13571167 93.64859009 C27.13752731 99.534449 27.13514143 105.42029534 27.13037109 111.30615234 C27.12491445 118.11762315 27.12670369 124.92906409 27.1321975 131.74053419 C27.1367278 137.5911759 27.13738005 143.4418086 27.13475883 149.2924515 C27.13319755 152.78615282 27.13299855 156.27984007 27.13629532 159.7735405 C27.13970675 163.65942306 27.13498577 167.54527178 27.12939453 171.43115234 C27.13141876 172.59475281 27.13344299 173.75835327 27.13552856 174.95721436 C27.13270874 176.00865631 27.12988892 177.06009827 27.12698364 178.1434021 C27.1264181 179.52213281 27.1264181 179.52213281 27.12584114 180.92871666 C27 183 27 183 26 184 C23.98049791 184.09935148 21.95749085 184.12799508 19.93554688 184.12939453 C18.63750122 184.13254669 17.33945557 184.13569885 16.0020752 184.13894653 C14.57429979 184.13715675 13.14652469 184.1351058 11.71875 184.1328125 C10.26525862 184.13348558 8.81176736 184.13445564 7.35827637 184.13571167 C4.30833873 184.13718846 1.25843034 184.1350347 -1.79150391 184.13037109 C-5.70930559 184.1246738 -9.62703878 184.12795291 -13.54483795 184.13394356 C-16.54730754 184.13754969 -19.54976077 184.13641035 -22.55223083 184.13381577 C-23.99718738 184.13314664 -25.44214539 184.13397442 -26.88710022 184.13629532 C-28.90324883 184.13882265 -30.91940262 184.13429052 -32.93554688 184.12939453 C-34.65976868 184.12820114 -34.65976868 184.12820114 -36.41882324 184.12698364 C-39 184 -39 184 -40 183 C-40.10118836 181.56417102 -40.13351219 180.1234193 -40.13803101 178.68403625 C-40.14348434 177.75209442 -40.14893768 176.82015259 -40.15455627 175.85997009 C-40.1555986 174.82892654 -40.15664093 173.797883 -40.15771484 172.7355957 C-40.16279556 171.6557843 -40.16787628 170.5759729 -40.17311096 169.46343994 C-40.18384551 167.10731644 -40.19245347 164.75118254 -40.19923019 162.39504433 C-40.21099751 158.6567157 -40.23044985 154.91850375 -40.25234985 151.18022156 C-40.31400318 140.54685882 -40.36805636 129.91351815 -40.40136719 119.2800293 C-40.42241804 112.78188088 -40.45781712 106.28393924 -40.50212479 99.78590965 C-40.51621683 97.31622964 -40.52499174 94.84651297 -40.52817917 92.37679482 C-40.09663662 67.39471252 -40.09663662 67.39471252 -50 45 C-55.78768713 39.52347884 -63.22791739 38.04990413 -70.98828125 37.96875 C-79.44812623 38.39872941 -87.08996042 40.53377725 -93.5234375 46.3203125 C-101.74611397 55.67415082 -104.2963507 64.34462687 -104.30297852 76.49731445 C-104.31563751 78.22260124 -104.31563751 78.22260124 -104.32855225 79.98274231 C-104.35429903 83.77625956 -104.36646072 87.56969912 -104.37890625 91.36328125 C-104.3950796 93.99790565 -104.41225942 96.63252406 -104.43040466 99.26713562 C-104.4719694 105.48830311 -104.5044292 111.70947853 -104.53287882 117.9307186 C-104.58699488 129.74764426 -104.65488151 141.564473 -104.73081779 153.38127708 C-104.75372918 157.27072232 -104.76994645 161.16015623 -104.78553772 165.04963684 C-104.79893684 167.41631192 -104.81255098 169.7829858 -104.82641602 172.1496582 C-104.82902939 173.2400238 -104.83164276 174.3303894 -104.83433533 175.45379639 C-104.84123383 176.43937027 -104.84813232 177.42494415 -104.85523987 178.44038391 C-104.86102224 179.73257072 -104.86102224 179.73257072 -104.86692142 181.05086231 C-105 183 -105 183 -106 184 C-107.98887494 184.09930533 -109.98130417 184.12799462 -111.97265625 184.12939453 C-113.25068115 184.13254669 -114.52870605 184.13569885 -115.84545898 184.13894653 C-117.25113967 184.13715675 -118.65682005 184.1351058 -120.0625 184.1328125 C-121.49357113 184.13348558 -122.92464215 184.13445564 -124.35571289 184.13571167 C-127.35857224 184.13718844 -130.3614019 184.13503476 -133.36425781 184.13037109 C-137.22152571 184.12467381 -141.07872404 184.12795292 -144.93598938 184.13394356 C-147.89213591 184.13754974 -150.84826583 184.13641032 -153.80441284 184.13381577 C-155.22704069 184.13314665 -156.64967003 184.13397437 -158.07229614 184.13629532 C-160.05731174 184.13882274 -162.04233259 184.13429042 -164.02734375 184.12939453 C-165.72491821 184.12820114 -165.72491821 184.12820114 -167.45678711 184.12698364 C-170 184 -170 184 -171 183 C-171.09993838 180.51076994 -171.13441515 178.04922448 -171.12698364 175.55944824 C-171.12854363 174.77117378 -171.13010362 173.98289931 -171.13171089 173.17073774 C-171.13572407 170.50898887 -171.13253002 167.84729625 -171.12939453 165.18554688 C-171.13074843 163.2855679 -171.1325283 161.38558918 -171.13470459 159.48561096 C-171.13928026 154.31014175 -171.13748881 149.13469237 -171.1343255 143.95922279 C-171.13180259 138.55578175 -171.13413925 133.15234247 -171.13571167 127.74890137 C-171.13753357 118.67292982 -171.13512653 109.5969664 -171.13037109 100.52099609 C-171.12492844 90.01173168 -171.12669108 79.50248666 -171.1321975 68.99322271 C-171.13672806 59.98773962 -171.13737946 50.98226238 -171.13475883 41.97677851 C-171.13319574 36.5905084 -171.13300316 31.20424743 -171.13629532 25.81797791 C-171.1391732 20.75540695 -171.13719988 15.69286112 -171.13140106 10.63029289 C-171.13007302 8.76659627 -171.13046833 6.90289754 -171.13266373 5.03920174 C-171.1353735 2.50628936 -171.13199625 -0.02654116 -171.12698364 -2.55944824 C-171.12921436 -3.3068063 -171.13144509 -4.05416436 -171.13374341 -4.82416964 C-171.11414985 -9.88585015 -171.11414985 -9.88585015 -170 -11 C-168.01112506 -11.09930533 -166.01869583 -11.12799462 -164.02734375 -11.12939453 C-162.1103064 -11.13412277 -162.1103064 -11.13412277 -160.15454102 -11.13894653 C-158.74886033 -11.13715675 -157.34317995 -11.1351058 -155.9375 -11.1328125 C-154.50642887 -11.13348558 -153.07535785 -11.13445564 -151.64428711 -11.13571167 C-148.64142776 -11.13718844 -145.6385981 -11.13503476 -142.63574219 -11.13037109 C-138.77847429 -11.12467381 -134.92127596 -11.12795292 -131.06401062 -11.13394356 C-128.10786409 -11.13754974 -125.15173417 -11.13641032 -122.19558716 -11.13381577 C-120.77295931 -11.13314665 -119.35032997 -11.13397437 -117.92770386 -11.13629532 C-115.94268826 -11.13882274 -113.95766741 -11.13429042 -111.97265625 -11.12939453 C-110.27508179 -11.12820114 -110.27508179 -11.12820114 -108.54321289 -11.12698364 C-106 -11 -106 -11 -105 -10 C-104.84259395 -8.29436222 -104.74906608 -6.58272756 -104.68359375 -4.87109375 C-104.64169922 -3.83662109 -104.59980469 -2.80214844 -104.55664062 -1.73632812 C-104.51732422 -0.64771484 -104.47800781 0.44089844 -104.4375 1.5625 C-104.39431641 2.65498047 -104.35113281 3.74746094 -104.30664062 4.87304688 C-104.20017932 7.58189564 -104.09816484 10.29083992 -104 13 C-103.31035156 12.2265625 -102.62070313 11.453125 -101.91015625 10.65625 C-75.24575924 -19.02126208 -33.19920107 -25.17249866 0 0 Z " fill="#017AB4" transform="translate(284,112)"/>
<path d="M0 0 C1.27794937 -0.00315216 2.55589874 -0.00630432 3.87257385 -0.009552 C5.27304112 -0.00776236 6.67350808 -0.00571144 8.07397461 -0.00341797 C9.5036165 -0.00409126 10.93325828 -0.00506149 12.36289978 -0.00631714 C15.35978281 -0.00779246 18.35663605 -0.00564453 21.35351562 -0.00097656 C25.20290778 0.00472579 29.0522303 0.0014375 32.90161991 -0.00454903 C35.85347523 -0.0081547 38.80531391 -0.00701612 41.75716972 -0.00442123 C43.17700649 -0.00375225 44.59684474 -0.0045794 46.01667976 -0.00690079 C47.99679665 -0.00942793 49.97691881 -0.00489618 51.95703125 0 C53.08573135 0.00079559 54.21443146 0.00159119 55.37733459 0.00241089 C57.91381836 0.12939453 57.91381836 0.12939453 58.91381836 1.12939453 C59.01375674 3.61862459 59.04823351 6.08017005 59.040802 8.56994629 C59.04314199 9.75235799 59.04314199 9.75235799 59.04552925 10.95865679 C59.04954243 13.62040566 59.04634838 16.28209828 59.04321289 18.94384766 C59.04456679 20.84382664 59.04634666 22.74380535 59.04852295 24.64378357 C59.05309862 29.81925278 59.05130717 34.99470216 59.04814386 40.17017174 C59.04562095 45.57361278 59.04795761 50.97705206 59.04953003 56.38049316 C59.05135193 65.45646471 59.04894489 74.53242813 59.04418945 83.60839844 C59.0387468 94.11766285 59.04050944 104.62690787 59.04601586 115.13617182 C59.05054641 124.14165492 59.05119782 133.14713216 59.04857719 142.15261602 C59.0470141 147.53888613 59.04682152 152.9251471 59.05011368 158.31141663 C59.05299156 163.37398758 59.05101823 168.43653341 59.04521942 173.49910164 C59.04389138 175.36279827 59.04428669 177.22649699 59.04648209 179.09019279 C59.04919186 181.62310518 59.04581461 184.15593569 59.040802 186.68884277 C59.04414808 187.80987986 59.04414808 187.80987986 59.04756176 188.95356417 C59.02796821 194.01524468 59.02796821 194.01524468 57.91381836 195.12939453 C55.88887604 195.22348932 53.86061966 195.24682575 51.83349609 195.24291992 C49.88158607 195.24280663 49.88158607 195.24280663 47.89024353 195.24269104 C46.45929934 195.23758362 45.02835554 195.23236761 43.59741211 195.22705078 C42.14152576 195.22518656 40.68563879 195.22376268 39.22975159 195.22276306 C35.39102457 195.21893819 31.55233517 195.20910817 27.71362305 195.19805908 C23.7992402 195.18784431 19.8848513 195.1832653 15.97045898 195.17822266 C8.28489493 195.16748587 0.59936191 195.15040982 -7.08618164 195.12939453 C-8.60610765 192.08954251 -8.21953863 188.93403426 -8.20643616 185.599823 C-8.20729058 184.8140721 -8.20814501 184.02832119 -8.20902532 183.21875966 C-8.21067954 180.57159822 -8.2051597 177.9244994 -8.19970703 175.27734375 C-8.19942512 173.3854472 -8.19958297 171.49355054 -8.20014954 169.60165405 C-8.20043736 164.45316683 -8.19454304 159.30470274 -8.18757558 154.15622091 C-8.18133955 148.78034678 -8.18073804 143.40447216 -8.17955017 138.02859497 C-8.17643759 127.84302425 -8.16822519 117.65746421 -8.15820068 107.4718982 C-8.14703727 95.87836162 -8.14152852 84.28482455 -8.13650525 72.69128394 C-8.12604252 48.83731487 -8.10844449 24.9833553 -8.08618164 1.12939453 C-5.32355594 -0.25191832 -3.09154762 0.00217762 0 0 Z " fill="#0A7FB7" transform="translate(20.086181640625,100.87060546875)"/>
<path d="M0 0 C7.8438209 6.59498358 12.21687982 14.93969183 13.46875 25.09375 C13.82457154 33.51485972 11.39033519 41.39585251 6.046875 47.9296875 C-2.58670622 56.67209537 -12.26511149 60.20733654 -24.33984375 60.87109375 C-35.65174369 60.6802293 -44.51383867 57.64691736 -52.7734375 49.99609375 C-59.25843933 43.22378171 -61.99581962 36.22217896 -62.3125 26.875 C-61.99508141 17.44459616 -59.53487884 9.50050642 -52.9296875 2.59765625 C-38.02458286 -9.96993198 -15.89809957 -11.35578541 0 0 Z " fill="#2a7ae4" transform="translate(70.8125,16.1875)"/>
<path d="M0 0 C1.91703735 -0.00472824 1.91703735 -0.00472824 3.87280273 -0.009552 C5.27848342 -0.00776222 6.6841638 -0.00571127 8.08984375 -0.00341797 C9.52091488 -0.00409105 10.9519859 -0.00506111 12.38305664 -0.00631714 C15.38591599 -0.00779391 18.38874565 -0.00564023 21.39160156 -0.00097656 C25.24886946 0.00472073 29.10606779 0.00144161 32.96333313 -0.00454903 C35.91947966 -0.00815521 38.87560958 -0.00701579 41.83175659 -0.00442123 C43.25438444 -0.00375212 44.67701378 -0.00457984 46.09963989 -0.00690079 C48.08465549 -0.0094282 50.06967634 -0.00489589 52.0546875 0 C53.75226196 0.00119339 53.75226196 0.00119339 55.48413086 0.00241089 C58.02734375 0.12939453 58.02734375 0.12939453 59.02734375 1.12939453 C59.1847498 2.83503231 59.27827767 4.54666697 59.34375 6.25830078 C59.38564453 7.29277344 59.42753906 8.32724609 59.47070312 9.39306641 C59.51001953 10.48167969 59.54933594 11.57029297 59.58984375 12.69189453 C59.63302734 13.784375 59.67621094 14.87685547 59.72070312 16.00244141 C59.82716443 18.71129017 59.92917891 21.42023446 60.02734375 24.12939453 C60.71699219 23.35595703 61.40664062 22.58251953 62.1171875 21.78564453 C78.37393234 3.69932508 78.37393234 3.69932508 86.02734375 2.12939453 C86.02734375 2.78939453 86.02734375 3.44939453 86.02734375 4.12939453 C84.5871582 5.54174805 84.5871582 5.54174805 82.578125 7.19580078 C77.01110691 11.9263557 72.00410098 17.16731414 66.94335938 22.42822266 C66.22212891 23.16363281 65.50089844 23.89904297 64.7578125 24.65673828 C64.11223389 25.32439209 63.46665527 25.9920459 62.80151367 26.67993164 C61.02734375 28.12939453 61.02734375 28.12939453 58.02734375 28.12939453 C58.02734375 19.54939453 58.02734375 10.96939453 58.02734375 2.12939453 C37.23734375 2.12939453 16.44734375 2.12939453 -4.97265625 2.12939453 C-4.97265625 65.48939453 -4.97265625 128.84939453 -4.97265625 194.12939453 C15.81734375 194.12939453 36.60734375 194.12939453 58.02734375 194.12939453 C58.02734375 194.45939453 58.02734375 194.78939453 58.02734375 195.12939453 C49.70005428 195.15252138 41.37277812 195.17031136 33.04546452 195.1812067 C29.17914257 195.18643479 25.31284254 195.19353107 21.4465332 195.20483398 C17.71830974 195.21566553 13.99010741 195.22167193 10.26186943 195.22427177 C8.83644719 195.22612554 7.41102616 195.22974524 5.98561287 195.23512459 C3.99570967 195.24233846 2.00578541 195.24280261 0.01586914 195.24291992 C-1.11886337 195.24514053 -2.25359589 195.24736115 -3.42271423 195.24964905 C-5.97265625 195.12939453 -5.97265625 195.12939453 -6.97265625 194.12939453 C-7.07259463 191.64016447 -7.1070714 189.17861901 -7.09963989 186.68884277 C-7.10119988 185.90056831 -7.10275987 185.11229384 -7.10436714 184.30013227 C-7.10838032 181.6383834 -7.10518627 178.97669079 -7.10205078 176.31494141 C-7.10340468 174.41496243 -7.10518455 172.51498371 -7.10736084 170.61500549 C-7.11193651 165.43953628 -7.11014506 160.2640869 -7.10698175 155.08861732 C-7.10445884 149.68517629 -7.1067955 144.281737 -7.10836792 138.8782959 C-7.11018982 129.80232436 -7.10778278 120.72636094 -7.10302734 111.65039062 C-7.09758469 101.14112621 -7.09934733 90.63188119 -7.10485375 80.12261724 C-7.10938431 71.11713415 -7.11003571 62.11165691 -7.10741508 53.10617304 C-7.10585199 47.71990293 -7.10565941 42.33364196 -7.10895157 36.94737244 C-7.11182945 31.88480148 -7.10985613 26.82225565 -7.10405731 21.75968742 C-7.10272927 19.8959908 -7.10312458 18.03229207 -7.10531998 16.16859627 C-7.10802975 13.63568389 -7.1046525 11.10285337 -7.09963989 8.56994629 C-7.10187061 7.82258823 -7.10410134 7.07523017 -7.10639966 6.3052249 C-7.08122133 -0.19919243 -6.34350816 0.00445947 0 0 Z " fill="#92CADF" transform="translate(119.97265625,100.87060546875)"/>
<path d="M0 0 C0.33 0 0.66 0 1 0 C2.16345133 6.45315255 2.14089921 12.80094114 2.12939453 19.34521484 C2.13202301 21.18776352 2.13202301 21.18776352 2.13470459 23.0675354 C2.13833932 26.41834271 2.13750544 29.76908788 2.1343255 33.11989164 C2.13178611 36.62945861 2.13414352 40.13902301 2.13571167 43.64859009 C2.13752731 49.534449 2.13514143 55.42029534 2.13037109 61.30615234 C2.12491445 68.11762315 2.12670369 74.92906409 2.1321975 81.74053419 C2.1367278 87.5911759 2.13738005 93.4418086 2.13475883 99.2924515 C2.13319755 102.78615282 2.13299855 106.27984007 2.13629532 109.7735405 C2.13970675 113.65942306 2.13498577 117.54527178 2.12939453 121.43115234 C2.13141876 122.59475281 2.13344299 123.75835327 2.13552856 124.95721436 C2.13270874 126.00865631 2.12988892 127.06009827 2.12698364 128.1434021 C2.1264181 129.52213281 2.1264181 129.52213281 2.12584114 130.92871666 C2 133 2 133 1 134 C-1.01950209 134.09935148 -3.04250915 134.12799508 -5.06445312 134.12939453 C-7.01152161 134.13412277 -7.01152161 134.13412277 -8.9979248 134.13894653 C-10.42570021 134.13715675 -11.85347531 134.1351058 -13.28125 134.1328125 C-14.73474138 134.13348558 -16.18823264 134.13445564 -17.64172363 134.13571167 C-20.69166127 134.13718846 -23.74156966 134.1350347 -26.79150391 134.13037109 C-30.70930559 134.1246738 -34.62703878 134.12795291 -38.54483795 134.13394356 C-41.54730754 134.13754969 -44.54976077 134.13641035 -47.55223083 134.13381577 C-48.99718738 134.13314664 -50.44214539 134.13397442 -51.88710022 134.13629532 C-53.90324883 134.13882265 -55.91940262 134.13429052 -57.93554688 134.12939453 C-59.65976868 134.12820114 -59.65976868 134.12820114 -61.41882324 134.12698364 C-64 134 -64 134 -65 133 C-65.10337431 131.55526288 -65.13794591 130.10553446 -65.14476013 128.65711975 C-65.15165863 127.71939728 -65.15855713 126.7816748 -65.16566467 125.8155365 C-65.16827805 124.77820877 -65.17089142 123.74088104 -65.17358398 122.67211914 C-65.180271 121.58588257 -65.18695801 120.499646 -65.19384766 119.38049316 C-65.20793932 117.01126814 -65.2198201 114.64202921 -65.22979546 112.27278328 C-65.24616527 108.51875454 -65.26940527 104.7648276 -65.29469299 101.010849 C-65.36555298 90.33337241 -65.4254475 79.65585768 -65.47680664 68.97827148 C-65.50827104 62.45424864 -65.55000097 55.93032995 -65.59700203 49.40640068 C-65.61297738 46.92224622 -65.62531946 44.43806556 -65.63390923 41.95387459 C-65.64613319 38.4666107 -65.67031617 34.97961056 -65.69702148 31.49243164 C-65.69761063 30.47332199 -65.69819977 29.45421234 -65.69880676 28.40422058 C-65.7556277 22.77317689 -66.30326608 17.64459093 -67.67080784 12.1740942 C-68.02962579 9.80434149 -67.73431196 8.26160675 -67 6 C-66.50978951 7.62170262 -66.03357878 9.24763695 -65.5625 10.875 C-65.29566406 11.77992188 -65.02882812 12.68484375 -64.75390625 13.6171875 C-62.97914159 21.5806393 -62.85558213 29.64647802 -62.88647461 37.77392578 C-62.88632858 38.79951096 -62.88618256 39.82509613 -62.8860321 40.88175964 C-62.88672294 44.23629957 -62.89447612 47.5907824 -62.90234375 50.9453125 C-62.90421088 53.28514577 -62.90563339 55.62497943 -62.90663147 57.96481323 C-62.91043341 64.09677222 -62.92024368 70.22870718 -62.93133545 76.36065674 C-62.94340717 83.73217269 -62.94796288 91.1036967 -62.95378876 98.47521973 C-62.96345682 109.65016314 -62.98262962 120.82505395 -63 132 C-42.21 132 -21.42 132 0 132 C0 88.44 0 44.88 0 0 Z " fill="#8BC2D7" transform="translate(309,162)"/>
<path d="M0 0 C0.99 0 1.98 0 3 0 C2.67657623 1.07785767 2.35315247 2.15571533 2.01992798 3.26623535 C0.66036842 8.74290637 0.69244343 14.12327576 0.68115234 19.74023438 C0.67110672 20.89232391 0.6610611 22.04441345 0.65071106 23.23141479 C0.61995436 27.01885504 0.60286458 30.80622484 0.5859375 34.59375 C0.56721984 37.22791141 0.54764598 39.86206686 0.5272522 42.49621582 C0.48059897 48.70787607 0.4437901 54.91955346 0.41057932 61.13129854 C0.36849847 68.9026987 0.31316783 76.6739975 0.2578125 84.4453125 C0.1592059 98.29681916 0.08053285 112.14835029 0 126 C-21.12 126 -42.24 126 -64 126 C-64 125.34 -64 124.68 -64 124 C-43.54 124 -23.08 124 -2 124 C-2.02320313 115.46769531 -2.04640625 106.93539062 -2.0703125 98.14453125 C-2.08182877 92.05749658 -2.09208166 85.97047008 -2.10050774 79.88343143 C-2.11159537 71.99542398 -2.12567727 64.10745877 -2.15087891 56.21948242 C-2.17082087 49.97477603 -2.18371836 43.73010149 -2.18817699 37.48536414 C-2.19078301 34.1791857 -2.19795332 30.8731196 -2.21146011 27.5669651 C-2.22594503 23.87507309 -2.22797917 20.18337086 -2.22705078 16.49145508 C-2.23424133 15.39669357 -2.24143188 14.30193207 -2.24884033 13.17399597 C-2.246091 12.16583832 -2.24334167 11.15768066 -2.24050903 10.11897278 C-2.24235262 9.24603482 -2.24419621 8.37309687 -2.24609566 7.47370625 C-1.96930012 4.69141071 -1.14653932 2.5376752 0 0 Z " fill="#1977A5" transform="translate(179,169)"/>
<path d="M0 0 C0.33 0 0.66 0 1 0 C1.33 7.59 1.66 15.18 2 23 C3.629375 21.185 5.25875 19.37 6.9375 17.5 C20.61016881 2.51586281 20.61016881 2.51586281 28 1 C28 1.66 28 2.32 28 3 C26.55981445 4.41235352 26.55981445 4.41235352 24.55078125 6.06640625 C18.98376316 10.79696116 13.97675723 16.03791961 8.91601562 21.29882812 C8.19478516 22.03423828 7.47355469 22.76964844 6.73046875 23.52734375 C6.08489014 24.19499756 5.43931152 24.86265137 4.77416992 25.55053711 C3 27 3 27 0 27 C0 18.09 0 9.18 0 0 Z " fill="#2a7ae4" transform="translate(178,102)"/>
<path d="M0 0 C0.99 0 1.98 0 3 0 C2.67657623 1.07785767 2.35315247 2.15571533 2.01992798 3.26623535 C0.66036842 8.74290637 0.69244343 14.12327576 0.68115234 19.74023438 C0.67110672 20.89232391 0.6610611 22.04441345 0.65071106 23.23141479 C0.61995436 27.01885504 0.60286458 30.80622484 0.5859375 34.59375 C0.56721984 37.22791141 0.54764598 39.86206686 0.5272522 42.49621582 C0.48059897 48.70787607 0.4437901 54.91955346 0.41057932 61.13129854 C0.3722624 68.2075841 0.32287756 75.28377914 0.27259517 82.35998821 C0.16947569 96.90658903 0.08015076 111.45325471 0 126 C-0.33 126 -0.66 126 -1 126 C-1.02334686 110.01460608 -1.04098798 94.02921768 -1.05181217 78.04381084 C-1.05697132 70.62173073 -1.06400679 63.19966121 -1.07543945 55.77758789 C-1.0853979 49.30949818 -1.0918562 42.84141613 -1.09408849 36.37331897 C-1.09539362 32.94763256 -1.09846702 29.52196807 -1.10573006 26.09628868 C-1.11376694 22.27471883 -1.11399038 18.45317055 -1.11352539 14.6315918 C-1.11712067 13.49223679 -1.12071594 12.35288177 -1.12442017 11.17900085 C-1.1230455 10.13993591 -1.12167084 9.10087097 -1.12025452 8.03031921 C-1.12117631 7.1260403 -1.1220981 6.22176138 -1.12304783 5.29008007 C-1 3 -1 3 0 0 Z " fill="#83B8D3" transform="translate(179,169)"/>
<path d="M0 0 C4.86393942 4.19305123 7.24634404 9.6692899 8 16 C8.3498214 21.77205314 7.86442005 26.5232661 6 32 C4.98386562 28.95159686 5.00235032 26.62874295 5.11547852 23.45239258 C5.3590591 16.21515919 4.88777412 11.24400085 1 5 C0.25 2 0.25 2 0 0 Z " fill="#2a7ae4" transform="translate(76,23)"/>
<path d="M0 0 C3.04144983 3.42489909 4.09503079 7.08887742 5.1875 11.4375 C5.36474609 12.09298828 5.54199219 12.74847656 5.72460938 13.42382812 C6.65948818 17.02257009 7.20773111 20.28232953 7 24 C4.60832086 21.60832086 4.32519776 20.06395855 3.5 16.8125 C2.65666738 13.54191053 1.80232069 10.29170224 0.8125 7.0625 C0 4 0 4 0 0 Z " fill="#85C0DA" transform="translate(302,137)"/>
<path d="M0 0 C7.36072234 0.42465706 13.32137824 2.98348917 20 6 C18.02 6.99 18.02 6.99 16 8 C16 7.34 16 6.68 16 6 C15.154375 5.87625 14.30875 5.7525 13.4375 5.625 C9.84763202 4.97229673 6.49175125 4.04752537 3 3 C3 2.34 3 1.68 3 1 C2.01 0.67 1.02 0.34 0 0 Z " fill="#2a7ae4" transform="translate(253,99)"/>
<path d="M0 0 C-0.55945313 -0.02320313 -1.11890625 -0.04640625 -1.6953125 -0.0703125 C-9.26983266 -0.24080009 -16.53365972 0.79505748 -24 2 C-24 1.01 -24 0.02 -24 -1 C-6.20489223 -3.73770889 -6.20489223 -3.73770889 0 0 Z " fill="#2a7ae4" transform="translate(222,150)"/>
<path d="M0 0 C0.33 0 0.66 0 1 0 C1.05447822 2.52113092 1.09389852 5.0410585 1.125 7.5625 C1.14175781 8.26697266 1.15851563 8.97144531 1.17578125 9.69726562 C1.22565737 15.10882512 0.99636239 20.61972177 -2.625 24.9375 C-3.305625 25.4634375 -3.305625 25.4634375 -4 26 C-4 24.35 -4 22.7 -4 21 C-3.34 21 -2.68 21 -2 21 C-1.01 10.605 -1.01 10.605 0 0 Z " fill="#2a7ae4" transform="translate(81,36)"/>
<path d="M0 0 C3.10408807 -0.05807043 6.2080364 -0.09361914 9.3125 -0.125 C10.19357422 -0.14175781 11.07464844 -0.15851563 11.98242188 -0.17578125 C12.82998047 -0.18222656 13.67753906 -0.18867188 14.55078125 -0.1953125 C15.72120972 -0.21102295 15.72120972 -0.21102295 16.9152832 -0.22705078 C19 0 19 0 22 2 C22 2.66 22 3.32 22 4 C20.68 4 19.36 4 18 4 C18 3.34 18 2.68 18 2 C12.06 2 6.12 2 0 2 C0 1.34 0 0.68 0 0 Z " fill="#2a7ae4" transform="translate(204,147)"/>
<path d="M0 0 C0.99 0 1.98 0 3 0 C3.70133599 1.57725347 4.385583 3.16211333 5.0625 4.75 C5.44535156 5.63171875 5.82820312 6.5134375 6.22265625 7.421875 C7.04600008 10.15256309 6.9773992 11.36901347 6 14 C5.67 12.02 5.34 10.04 5 8 C4.34 8 3.68 8 3 8 C0 2.25 0 2.25 0 0 Z " fill="#54A0C4" transform="translate(237,160)"/>
<path d="M0 0 C2.475 0.495 2.475 0.495 5 1 C5.33 1.99 5.66 2.98 6 4 C7.65 4 9.3 4 11 4 C11.33 4.99 11.66 5.98 12 7 C7.0682659 6.55166054 3.6807076 4.13973905 0 1 C0 0.67 0 0.34 0 0 Z " fill="#72B4D2" transform="translate(20,67)"/>
<path d="M0 0 C0 0.66 0 1.32 0 2 C-0.99 2 -1.98 2 -3 2 C-3.20625 2.598125 -3.4125 3.19625 -3.625 3.8125 C-5.50926082 6.81018767 -7.81132084 7.61361776 -11 9 C-9.55936614 4.67809842 -4.74032109 0 0 0 Z " fill="#7DBBD7" transform="translate(27,14)"/>
<path d="M0 0 C2.94751667 2.74423966 5.22773678 5.36219655 7 9 C6.67 9.99 6.34 10.98 6 12 C5.67 10.68 5.34 9.36 5 8 C4.34 8 3.68 8 3 8 C0.25624329 5.04518508 0 4.22528092 0 0 Z " fill="#8AC3DC" transform="translate(295,125)"/>
<path d="M0 0 C0 0.66 0 1.32 0 2 C-2.25 4.1875 -2.25 4.1875 -5 6 C-7.3125 5.75 -7.3125 5.75 -9 5 C-2.87096774 0 -2.87096774 0 0 0 Z " fill="#64ABCB" transform="translate(206,103)"/>
<path d="M0 0 C1 2 1 2 0.25 5.0625 C-0.1625 6.031875 -0.575 7.00125 -1 8 C-1.99 8.33 -2.98 8.66 -4 9 C-3.46930939 5.17902761 -2.50298434 2.93828597 0 0 Z " fill="#77B8D5" transform="translate(15,23)"/>
<path d="M0 0 C1.258125 0.12375 2.51625 0.2475 3.8125 0.375 C4.87404297 0.47941406 4.87404297 0.47941406 5.95703125 0.5859375 C8 1 8 1 11 3 C8.36 3 5.72 3 3 3 C3 2.34 3 1.68 3 1 C2.01 0.67 1.02 0.34 0 0 Z " fill="#81BED9" transform="translate(253,99)"/>
</svg>
